HIERARCHY
ROOT Hip
{
	OFFSET -0.132419 0.288342 0.276502
	CHANNELS 6 Xposition Yposition Zposition Xrotation Yrotation Zrotation
	JOINT LowerSpine
	{
		OFFSET -0.001241 0.144196 0.265285
		CHANNELS 6 Xposition Yposition Zposition Xrotation Yrotation Zrotation
		JOINT MiddleSpine
		{
			OFFSET -0.001474 -0.020368 0.236154
			CHANNELS 3 Xrotation Yrotation Zrotation
			JOINT Chest
			{
				OFFSET -0.001661 0.047212 0.295042
				CHANNELS 3 Xrotation Yrotation Zrotation
				JOINT Neck
				{
					OFFSET -0.004013 -0.013427 0.660187
					CHANNELS 6 Xposition Yposition Zposition Xrotation Yrotation Zrotation
					JOINT Head
					{
						OFFSET -0.002512 -0.115887 0.368582
						CHANNELS 3 Xrotation Yrotation Zrotation
						End Site
						{
							OFFSET -0.000331 -0.003687 0.053439
						}
					}
				}
				JOINT LClavicle
				{
					OFFSET 0.055648 -0.221334 0.629337
					CHANNELS 6 Xposition Yposition Zposition Xrotation Yrotation Zrotation
					JOINT LShoulder
					{
						OFFSET 0.350230 0.143325 0.099205
						CHANNELS 3 Xrotation Yrotation Zrotation
						JOINT LForearm
						{
							OFFSET 0.827190 0.005223 0.002337
							CHANNELS 3 Xrotation Yrotation Zrotation
							JOINT LHand
							{
								OFFSET 0.690020 0.002338 0.006322
								CHANNELS 3 Xrotation Yrotation Zrotation
								JOINT LFinger1
								{
									OFFSET 0.267123 -0.075801 0.022082
									CHANNELS 6 Xposition Yposition Zposition Xrotation Yrotation Zrotation
									JOINT LFinger11
									{
										OFFSET 0.100143 -0.016909 -0.024460
										CHANNELS 3 Xrotation Yrotation Zrotation
										JOINT LFinger12
										{
											OFFSET 0.068366 -0.011547 -0.016702
											CHANNELS 3 Xrotation Yrotation Zrotation
											End Site
											{
												OFFSET 0.050793 -0.007755 -0.015144
											}
										}
									}
								}
								JOINT LFinger2
								{
									OFFSET 0.271244 -0.008191 0.028371
									CHANNELS 6 Xposition Yposition Zposition Xrotation Yrotation Zrotation
									JOINT LFinger21
									{
										OFFSET 0.123684 0.000410 0.001119
										CHANNELS 3 Xrotation Yrotation Zrotation
										JOINT LFinger22
										{
											OFFSET 0.068559 0.000238 0.000639
											CHANNELS 3 Xrotation Yrotation Zrotation
											End Site
											{
												OFFSET 0.053456 -0.000056 -0.003451
											}
										}
									}
								}
								JOINT LFinger3
								{
									OFFSET 0.257256 0.059469 0.021940
									CHANNELS 6 Xposition Yposition Zposition Xrotation Yrotation Zrotation
									JOINT LFinger31
									{
										OFFSET 0.112283 0.006966 -0.004726
										CHANNELS 3 Xrotation Yrotation Zrotation
										JOINT LFinger32
										{
											OFFSET 0.063985 0.003982 -0.002672
											CHANNELS 3 Xrotation Yrotation Zrotation
											End Site
											{
												OFFSET 0.053153 0.002632 -0.006106
											}
										}
									}
								}
								JOINT LFinger4
								{
									OFFSET 0.239047 0.105136 -0.012581
									CHANNELS 6 Xposition Yposition Zposition Xrotation Yrotation Zrotation
									JOINT LFinger41
									{
										OFFSET 0.069163 0.019433 -0.013226
										CHANNELS 3 Xrotation Yrotation Zrotation
										JOINT LFinger42
										{
											OFFSET 0.050719 0.014259 -0.009682
											CHANNELS 3 Xrotation Yrotation Zrotation
											End Site
											{
												OFFSET 0.050543 0.011979 -0.013090
											}
										}
									}
								}
								JOINT LFinger0
								{
									OFFSET 0.055486 -0.040412 -0.043146
									CHANNELS 6 Xposition Yposition Zposition Xrotation Yrotation Zrotation
									JOINT LFinger01
									{
										OFFSET 0.103034 -0.076534 -0.036212
										CHANNELS 3 Xrotation Yrotation Zrotation
										JOINT LFinger02
										{
											OFFSET 0.067865 -0.048049 -0.025751
											CHANNELS 3 Xrotation Yrotation Zrotation
											End Site
											{
												OFFSET 0.042539 -0.028626 -0.015505
											}
										}
									}
								}
							}
						}
					}
				}
				JOINT RClavicle
				{
					OFFSET -0.064329 -0.221033 0.628614
					CHANNELS 6 Xposition Yposition Zposition Xrotation Yrotation Zrotation
					JOINT RShoulder
					{
						OFFSET -0.350746 0.145090 0.094998
						CHANNELS 3 Xrotation Yrotation Zrotation
						JOINT RForearm
						{
							OFFSET -0.827121 0.009331 -0.007635
							CHANNELS 3 Xrotation Yrotation Zrotation
							JOINT RHand
							{
								OFFSET -0.690026 0.005765 -0.001997
								CHANNELS 3 Xrotation Yrotation Zrotation
								JOINT RFinger1
								{
									OFFSET -0.267743 -0.074473 0.018860
									CHANNELS 6 Xposition Yposition Zposition Xrotation Yrotation Zrotation
									JOINT RFinger11
									{
										OFFSET -0.099924 -0.016412 -0.025666
										CHANNELS 3 Xrotation Yrotation Zrotation
										JOINT RFinger12
										{
											OFFSET -0.068216 -0.011208 -0.017529
											CHANNELS 3 Xrotation Yrotation Zrotation
											End Site
											{
												OFFSET -0.050644 -0.007503 -0.015756
											}
										}
									}
								}
								JOINT RFinger2
								{
									OFFSET -0.271604 -0.006843 0.025102
									CHANNELS 6 Xposition Yposition Zposition Xrotation Yrotation Zrotation
									JOINT RFinger21
									{
										OFFSET -0.123688 0.001024 -0.000373
										CHANNELS 3 Xrotation Yrotation Zrotation
										JOINT RFinger22
										{
											OFFSET -0.068560 0.000582 -0.000187
											CHANNELS 3 Xrotation Yrotation Zrotation
											End Site
											{
												OFFSET -0.053410 0.000210 -0.004095
											}
										}
									}
								}
								JOINT RFinger3
								{
									OFFSET -0.257204 0.060747 0.018838
									CHANNELS 6 Xposition Yposition Zposition Xrotation Yrotation Zrotation
									JOINT RFinger31
									{
										OFFSET -0.112182 0.007523 -0.006079
										CHANNELS 3 Xrotation Yrotation Zrotation
										JOINT RFinger32
										{
											OFFSET -0.063927 0.004299 -0.003443
											CHANNELS 3 Xrotation Yrotation Zrotation
											End Site
											{
												OFFSET -0.053061 0.002896 -0.006746
											}
										}
									}
								}
								JOINT RFinger4
								{
									OFFSET -0.238354 0.106321 -0.015459
									CHANNELS 6 Xposition Yposition Zposition Xrotation Yrotation Zrotation
									JOINT RFinger41
									{
										OFFSET -0.068902 0.019776 -0.014055
										CHANNELS 3 Xrotation Yrotation Zrotation
										JOINT RFinger42
										{
											OFFSET -0.050527 0.014510 -0.010290
											CHANNELS 3 Xrotation Yrotation Zrotation
											End Site
											{
												OFFSET -0.050321 0.012229 -0.013698
											}
										}
									}
								}
								JOINT RFinger0
								{
									OFFSET -0.055162 -0.040134 -0.043810
									CHANNELS 6 Xposition Yposition Zposition Xrotation Yrotation Zrotation
									JOINT RFinger01
									{
										OFFSET -0.102969 -0.076025 -0.037460
										CHANNELS 3 Xrotation Yrotation Zrotation
										JOINT RFinger02
										{
											OFFSET -0.067784 -0.047713 -0.026566
											CHANNELS 3 Xrotation Yrotation Zrotation
											End Site
											{
												OFFSET -0.042491 -0.028415 -0.016017
											}
										}
									}
								}
							}
						}
					}
				}
			}
		}
	}
	JOINT RThigh
	{
		OFFSET -0.307425 0.021328 0.116323
		CHANNELS 6 Xposition Yposition Zposition Xrotation Yrotation Zrotation
		JOINT RShin
		{
			OFFSET -0.014821 0.047183 -1.206422
			CHANNELS 3 Xrotation Yrotation Zrotation
			JOINT RFoot
			{
				OFFSET 0.007255 0.046277 -1.184505
				CHANNELS 3 Xrotation Yrotation Zrotation
				JOINT RToe
				{
					OFFSET 0.000185 -0.267156 -0.140828
					CHANNELS 3 Xrotation Yrotation Zrotation
					End Site
					{
						OFFSET -0.000120 -0.053526 -0.002092
					}
				}
			}
		}
	}
	JOINT LThigh
	{
		OFFSET 0.306097 0.019807 0.120030
		CHANNELS 6 Xposition Yposition Zposition Xrotation Yrotation Zrotation
		JOINT LShin
		{
			OFFSET 0.029600 0.047073 -1.206163
			CHANNELS 3 Xrotation Yrotation Zrotation
			JOINT LFoot
			{
				OFFSET 0.007255 0.046276 -1.184504
				CHANNELS 3 Xrotation Yrotation Zrotation
				JOINT LToe
				{
					OFFSET 0.000185 -0.267159 -0.140828
					CHANNELS 3 Xrotation Yrotation Zrotation
					End Site
					{
						OFFSET -0.000120 -0.053526 -0.002092
					}
				}
			}
		}
	}
}
MOTION
Frames: 4
Frame Time: 0.041667
-0.150073 0.116508 2.452842 8.623376 2.154332 0.788396 -0.001241 0.144196 0.265285 -1.204815 0.889533 0.584166 -1.204781 0.889559 0.584182 -1.204821 0.889533 0.584148 -0.004013 -0.013427 0.660187 -15.075705 -4.265205 -2.096144 -2.647577 -4.207474 -0.404639 0.055648 -0.221333 0.629337 -0.041256 14.514444 0.575650 30.093718 52.909336 -28.875038 0.329891 0.785921 -21.350205 -0.000005 0.000009 0.000003 0.267124 -0.075801 0.022081 0.000000 0.000004 -0.000013 0.000007 0.000001 -0.000009 0.000011 0.000002 -0.000023 0.271243 -0.008191 0.028372 0.000000 -0.000003 -0.000015 -0.000002 0.000005 -0.000003 0.000000 -0.000004 -0.000001 0.257256 0.059469 0.021939 0.000003 0.000004 -0.000011 0.000004 -0.000001 -0.000013 0.000003 0.000002 0.000004 0.239048 0.105136 -0.012581 0.000005 -0.000006 -0.000013 0.000001 -0.000006 0.000010 0.000002 0.000006 0.000010 0.055486 -0.040412 -0.043145 0.000003 -0.000004 -0.000016 -0.000009 0.000007 0.000040 -0.000002 -0.000009 0.000014 -0.064330 -0.221032 0.628613 -0.107163 -14.488503 -0.583081 67.149495 -20.483891 61.643120 0.052731 -0.705037 17.904352 -0.000110 0.000009 0.000029 -0.267743 -0.074473 0.018860 -0.000017 -0.000004 -0.000060 -0.000065 -0.000011 -0.000120 0.000065 -0.000052 0.000248 -0.271604 -0.006843 0.025102 -0.000000 -0.000004 -0.000050 -0.000001 -0.000003 0.000026 -0.000006 -0.000018 -0.000083 -0.257204 0.060747 0.018838 -0.000002 -0.000009 -0.000052 0.000003 -0.000009 -0.000017 -0.000007 -0.000001 -0.000020 -0.238351 0.106321 -0.015459 -0.000001 -0.000008 -0.000041 0.000009 -0.000005 -0.000025 -0.000003 -0.000006 -0.000028 -0.055161 -0.040134 -0.043810 -0.000019 -0.000002 -0.000077 0.000009 0.000011 -0.000005 0.000073 -0.000047 0.000341 -0.307425 0.021328 0.116323 -16.716506 -2.258806 0.200441 5.664913 -0.012303 0.034873 0.748567 -0.552102 1.068691 -0.000006 0.000348 0.000077 0.306097 0.019807 0.120030 -12.611870 -1.432146 1.525923 1.492703 -0.003583 0.009038 0.530475 -0.359976 0.692687 0.000015 -0.000043 0.000001 
-0.150073 0.116508 2.452842 8.623376 2.154332 0.788396 -0.001241 0.144196 0.265285 -1.204815 0.889533 0.584166 -1.204781 0.889559 0.584182 -1.204821 0.889533 0.584148 -0.004013 -0.013427 0.660187 -15.075705 -4.265205 -2.096144 -2.647577 -4.207474 -0.404639 0.055648 -0.221333 0.629337 -0.041256 14.514444 0.575650 30.093718 52.909336 -28.875038 0.329891 0.785921 -21.350205 -0.000005 0.000009 0.000003 0.267124 -0.075801 0.022081 0.000000 0.000004 -0.000013 0.000007 0.000001 -0.000009 0.000011 0.000002 -0.000023 0.271243 -0.008191 0.028372 0.000000 -0.000003 -0.000015 -0.000002 0.000005 -0.000003 0.000000 -0.000004 -0.000001 0.257256 0.059469 0.021939 0.000003 0.000004 -0.000011 0.000004 -0.000001 -0.000013 0.000003 0.000002 0.000004 0.239048 0.105136 -0.012581 0.000005 -0.000006 -0.000013 0.000001 -0.000006 0.000010 0.000002 0.000006 0.000010 0.055486 -0.040412 -0.043145 0.000003 -0.000004 -0.000016 -0.000009 0.000007 0.000040 -0.000002 -0.000009 0.000014 -0.064330 -0.221032 0.628613 -0.107163 -14.488503 -0.583081 67.149495 -20.483891 61.643120 0.052731 -0.705037 17.904352 -0.000110 0.000009 0.000029 -0.267743 -0.074473 0.018860 -0.000017 -0.000004 -0.000060 -0.000065 -0.000011 -0.000120 0.000065 -0.000052 0.000248 -0.271604 -0.006843 0.025102 -0.000000 -0.000004 -0.000050 -0.000001 -0.000003 0.000026 -0.000006 -0.000018 -0.000083 -0.257204 0.060747 0.018838 -0.000002 -0.000009 -0.000052 0.000003 -0.000009 -0.000017 -0.000007 -0.000001 -0.000020 -0.238351 0.106321 -0.015459 -0.000001 -0.000008 -0.000041 0.000009 -0.000005 -0.000025 -0.000003 -0.000006 -0.000028 -0.055161 -0.040134 -0.043810 -0.000019 -0.000002 -0.000077 0.000009 0.000011 -0.000005 0.000073 -0.000047 0.000341 -0.307425 0.021328 0.116323 -16.716506 -2.258806 0.200441 5.664913 -0.012303 0.034873 0.748567 -0.552102 1.068691 -0.000006 0.000348 0.000077 0.306097 0.019807 0.120030 -12.611870 -1.432146 1.525923 1.492703 -0.003583 0.009038 0.530475 -0.359976 0.692687 0.000015 -0.000043 0.000001 
-0.151064 0.115243 2.453290 8.546206 2.214943 0.858273 -0.001241 0.144195 0.265285 -1.168051 0.878964 0.564744 -1.168023 0.878987 0.564760 -1.168040 0.878961 0.564727 -0.004013 -0.013427 0.660188 -15.004828 -4.335846 -2.125286 -3.693182 -5.046524 -0.535183 0.055648 -0.221334 0.629339 -0.042036 14.503319 0.574389 31.438049 53.520587 -29.758871 0.341843 0.807821 -21.968484 -0.000006 0.000007 -0.000007 0.267123 -0.075802 0.022082 0.000003 -0.000000 -0.000012 0.000010 0.000005 -0.000003 0.000011 0.000001 -0.000023 0.271243 -0.008191 0.028372 0.000003 -0.000001 -0.000017 0.000004 0.000006 -0.000002 0.000001 -0.000003 -0.000008 0.257257 0.059469 0.021939 0.000003 0.000003 -0.000012 0.000004 0.000001 -0.000005 0.000005 0.000003 0.000003 0.239048 0.105136 -0.012581 0.000003 -0.000007 -0.000013 -0.000001 -0.000007 -0.000000 0.000001 0.000005 0.000011 0.055486 -0.040412 -0.043146 -0.000005 -0.000001 -0.000024 -0.000015 0.000011 0.000041 -0.000003 -0.000022 0.000023 -0.064329 -0.221033 0.628615 -0.106912 -14.495502 -0.583162 67.164938 -20.763183 61.569449 0.046476 -0.703705 17.830649 -0.000107 0.000013 0.000028 -0.267744 -0.074473 0.018860 -0.000018 -0.000001 -0.000062 -0.000070 -0.000019 -0.000119 0.000058 -0.000053 0.000245 -0.271605 -0.006843 0.025101 0.000000 -0.000005 -0.000049 0.000000 -0.000001 0.000029 -0.000003 -0.000015 -0.000084 -0.257204 0.060747 0.018838 -0.000005 -0.000006 -0.000050 0.000001 -0.000003 -0.000014 -0.000005 -0.000006 -0.000019 -0.238352 0.106321 -0.015459 -0.000003 -0.000005 -0.000038 0.000017 0.000001 -0.000021 -0.000001 -0.000009 -0.000032 -0.055162 -0.040134 -0.043810 -0.000016 -0.000005 -0.000085 0.000008 0.000019 -0.000015 0.000079 -0.000036 0.000341 -0.307425 0.021328 0.116323 -16.463951 -2.323628 0.250200 5.334379 -0.011678 0.032810 1.050773 -0.423957 0.825991 0.000001 0.000348 0.000077 0.306097 0.019807 0.120030 -12.544273 -1.487886 1.500876 1.525125 -0.003659 0.009237 0.602537 -0.354067 0.683253 0.000020 -0.000039 0.000000 
-0.152938 0.114100 2.453831 8.470749 2.284381 0.926557 -0.001241 0.144196 0.265286 -1.126704 0.867786 0.546641 -1.126672 0.867811 0.546656 -1.126687 0.867782 0.546621 -0.004013 -0.013427 0.660188 -14.956207 -4.421769 -2.162664 -2.531162 -3.879496 -0.369789 0.055648 -0.221334 0.629337 -0.046611 14.468881 0.571320 32.647242 53.881269 -30.678006 0.352787 0.815583 -22.241681 0.000001 0.000009 -0.000001 0.267124 -0.075801 0.022082 0.000001 0.000001 -0.000011 0.000009 0.000005 -0.000002 0.000005 0.000003 -0.000028 0.271243 -0.008191 0.028372 -0.000000 -0.000001 -0.000011 0.000002 0.000002 -0.000008 -0.000002 -0.000002 -0.000002 0.257256 0.059469 0.021939 -0.000001 0.000004 -0.000011 0.000001 0.000001 -0.000007 -0.000001 0.000003 0.000003 0.239047 0.105136 -0.012581 0.000004 -0.000005 -0.000013 0.000002 -0.000005 0.000004 0.000000 0.000005 0.000011 0.055486 -0.040411 -0.043146 0.000002 -0.000012 -0.000015 -0.000005 0.000000 0.000030 -0.000002 -0.000024 0.000016 -0.064329 -0.221033 0.628614 -0.108912 -14.499470 -0.584517 67.198850 -21.005953 61.569504 0.045277 -0.696977 17.671207 -0.000105 0.000007 0.000027 -0.267744 -0.074473 0.018861 -0.000016 -0.000002 -0.000060 -0.000066 -0.000016 -0.000117 0.000059 -0.000054 0.000252 -0.271604 -0.006843 0.025102 0.000002 -0.000006 -0.000047 0.000001 -0.000003 0.000028 -0.000001 -0.000019 -0.000082 -0.257204 0.060747 0.018838 -0.000006 -0.000011 -0.000049 -0.000003 -0.000003 -0.000016 -0.000007 0.000001 -0.000017 -0.238353 0.106321 -0.015459 -0.000000 -0.000010 -0.000046 0.000013 -0.000001 -0.000020 0.000009 -0.000012 -0.000031 -0.055162 -0.040134 -0.043810 -0.000014 -0.000004 -0.000082 0.000009 0.000026 -0.000003 0.000075 -0.000042 0.000350 -0.307425 0.021328 0.116323 -16.279828 -2.420705 0.299131 5.171993 -0.011366 0.031800 1.317959 -0.312594 0.608628 0.000001 0.000347 0.000076 0.306097 0.019807 0.120030 -12.452307 -1.565692 1.473874 1.490555 -0.003578 0.009026 0.672223 -0.362058 0.700692 0.000018 -0.000042 0.000001 
